<svg width="49" height="51" viewBox="0 0 49 51" fill="none" xmlns="http://www.w3.org/2000/svg">
<path d="M37.3898 5.89696C37.0655 5.67698 36.6239 5.7275 36.3583 6.0208C36.0943 6.31247 36.0829 6.75568 36.3322 7.06201C38.7569 9.9999 40.0946 13.7216 40.0946 17.541C40.0946 19.9183 39.9806 22.6037 38.5972 24.4058C36.3388 27.347 33.9761 27.9629 32.389 27.9629C30.3864 27.9629 28.8661 27.0097 28.1752 26.195C23.4629 20.6483 32.0207 11.0379 32.1087 10.9433C32.3059 10.7217 32.3662 10.4089 32.2619 10.1319L31.4439 7.95169C31.3461 7.69913 31.1327 7.51011 30.8671 7.45308C30.6047 7.39931 30.3294 7.47915 30.1404 7.66817L27.4827 10.3258L29.0079 4.74494C29.0828 4.47119 29.0046 4.17626 28.8042 3.97421L25.0646 0.234637C24.755 -0.0749572 24.2515 -0.0749572 23.9419 0.234637L20.2024 3.97421C20.0003 4.17626 19.9221 4.46957 19.9987 4.74494L21.5206 10.3274L18.8646 7.66979C18.674 7.48078 18.4002 7.39931 18.1362 7.45471C17.8706 7.51174 17.6556 7.6975 17.5594 7.95332L16.7398 10.1335C16.6355 10.4105 16.6958 10.7217 16.8946 10.945C16.981 11.0427 25.5388 20.65 20.8297 26.1966C20.1372 27.0113 18.6186 27.9645 16.616 27.9645C15.0289 27.9645 12.6662 27.3486 10.4078 24.4075C9.02438 22.6069 8.90869 19.92 8.90869 17.5426C8.90869 13.7232 10.2448 10.0015 12.6694 7.06364C12.9204 6.75731 12.909 6.31247 12.645 6.02243C12.3794 5.72913 11.9378 5.67698 11.6119 5.89696C4.78945 10.4969 0.717468 18.1471 0.717468 26.3644C0.717468 39.6917 11.1524 50.5128 24.4715 51C24.4813 51 24.4911 51 24.5008 51C24.5106 51 24.5204 51 24.5302 51C37.8493 50.5128 48.2826 39.6917 48.2826 26.3644C48.2826 18.1471 44.209 10.4969 37.3898 5.89696Z" fill="white"/>
</svg>
